# Blender v2.91.0 OBJ File: 'FISH.blend'
# www.blender.org
mtllib FISH.mtl
o Cube_Cube.001
v -0.549166 -0.264621 -0.498332
v -0.450849 -0.663215 -0.820005
v -0.548199 0.266188 -0.551956
v -0.485842 -0.315116 0.616375
v -0.424900 0.256297 0.632838
v -0.116817 -0.092794 -1.788415
v -0.112550 0.022184 -1.807889
v -1.113099 -1.087570 0.688700
v -0.307934 -0.322984 1.529842
v -0.394333 0.093652 1.633480
v -0.404651 -0.345414 1.201248
v 0.173898 -0.176238 -2.547253
v 0.174775 -0.059970 -2.559968
v -0.278434 0.360358 -0.416081
v -0.502154 0.154413 -1.217944
v -0.070094 0.083092 -1.828028
v -0.493668 0.266781 0.051525
v -0.257303 0.349217 -0.708587
v -0.276771 0.389105 0.015577
v 0.240826 0.125505 -2.299321
v 0.337210 -0.269162 -2.085941
v -0.454180 -0.211952 1.421541
v -0.461316 -0.047008 1.567403
v -0.371015 -0.170091 -1.154621
v -0.494733 -0.296924 0.341563
v -0.349460 -0.326127 -0.733799
v 0.033712 0.012309 -1.762839
v -0.114764 -0.305055 -0.903935
v -0.501391 -0.280820 0.064919
v -0.105375 -0.449825 -0.492583
v -0.268116 -0.297610 -0.860219
v -0.289756 -0.392646 -0.609070
v -0.452682 -0.426238 0.688464
v -0.364859 -0.504993 0.362371
v -0.381874 -0.455270 0.471653
v -0.260892 -0.413209 1.245393
v -0.470976 -0.326952 0.904533
v -0.461094 -0.532687 0.913222
v -0.382845 -0.468826 0.817649
v -0.415640 -0.231048 1.202744
v -0.423744 0.033530 1.351962
v -0.303768 0.050648 1.659885
v -0.282639 -0.256232 1.558569
v -0.199607 -0.254365 1.628891
v -0.418771 -0.235202 1.199003
v -0.429102 0.028655 1.349356
v -0.240273 0.183852 1.443110
v -0.243827 -0.304785 1.332274
v -0.161404 -0.303380 1.400537
v -0.236862 0.186141 1.443386
v -0.241720 -0.302552 1.333836
v -0.159295 -0.301435 1.401608
v -0.233780 -0.111384 0.854380
v -0.255596 0.037195 0.993150
v -0.184268 0.104181 1.064194
v -0.172579 -0.140080 0.977682
v 0.546593 -0.258299 -0.424518
v 0.511215 -0.655573 -0.730780
v 0.549446 0.270359 -0.503252
v 0.007212 0.973439 -0.689425
v 0.479620 -0.294639 0.662216
v 0.417230 0.267396 0.653659
v 0.490784 -0.081569 -1.672531
v 0.486749 0.037327 -1.664122
v 0.186816 -0.142871 -1.729143
v 0.185316 0.157745 -1.742220
v 1.144199 -1.027799 0.815756
v -0.029482 0.480743 0.709360
v 0.120738 -0.294114 1.584001
v 0.119551 0.128596 1.699031
v -0.102715 -0.354659 1.637150
v -0.151782 0.150325 1.780336
v 0.327193 -0.307701 1.271994
v -0.041134 -0.462898 1.309976
v 0.822916 -0.141322 -2.257551
v 0.823419 -0.024878 -2.269012
v 0.584356 -0.793037 -2.514031
v 0.718361 0.896819 -3.016588
v 0.015108 0.406201 -0.686161
v 0.270810 0.361963 -0.397343
v 0.578700 0.169394 -1.069855
v 0.447015 0.103021 -1.654313
v 0.494859 0.272076 0.065898
v -0.002932 0.475251 0.206524
v 0.289196 0.353951 -0.653306
v 0.273043 0.392216 0.025814
v 0.637353 0.915549 -2.838252
v 0.323364 0.225694 -2.065569
v 0.565568 0.142853 -2.155253
v 0.367331 -0.267621 -2.073067
v 0.527063 -0.007157 -2.481089
v 0.281633 -0.164518 1.510525
v 0.228993 -0.001827 1.652160
v 0.478544 -0.159870 -1.045994
v 0.503898 -0.278630 0.385615
v 0.389467 -0.320544 -0.668607
v 0.338413 0.017496 -1.707923
v 0.199718 -0.302286 -0.871600
v 0.530198 -0.262864 0.109328
v 0.110747 -0.448993 -0.484614
v 0.342979 -0.292055 -0.795354
v 0.315360 -0.388452 -0.575045
v 0.447032 -0.403244 0.738640
v 0.394395 -0.486251 0.404613
v 0.393464 -0.435986 0.516192
v 0.170071 -0.387114 1.294346
v 0.443121 -0.292953 0.971832
v 0.448055 -0.506736 0.965949
v 0.375797 -0.447065 0.862200
v -0.119252 -0.202417 1.703380
v -0.135401 0.000209 1.742192
v -0.124472 0.333499 1.550272
v -0.106803 0.223045 1.528494
v 0.321509 -0.191635 1.276681
v 0.267811 0.071233 1.422692
v 0.013537 -0.443275 -0.491457
v 0.041371 0.073330 1.702435
v 0.085181 -0.231997 1.604031
v -0.015732 -0.242042 1.652009
v -0.086021 -0.462437 1.556711
v 0.317909 -0.192970 1.278227
v 0.262004 0.069059 1.425150
v -0.079428 -0.299484 1.470020
v -0.106096 0.117925 1.522480
v 0.041047 0.200245 1.473862
v 0.124409 -0.283044 1.373059
v 0.022626 -0.291984 1.421915
v 0.044553 0.201965 1.473071
v 0.126647 -0.281602 1.373138
v 0.024794 -0.290391 1.422326
v -0.041035 0.114800 1.143780
v 0.209347 -0.093594 0.887751
v 0.198419 0.055245 1.027010
v 0.112881 0.115874 1.086130
v 0.133185 -0.127738 1.000835
v -0.022789 -0.157401 1.048117
v 0.008271 -0.034085 0.604451
v 0.003869 -0.036055 0.605767
v 0.004796 -0.035640 0.605490
v 0.007405 -0.034472 0.604710
vt 0.375000 0.625000
vt 0.375000 0.687500
vt 0.375000 0.718750
vt 0.375000 0.750000
vt 0.437500 0.562500
vt 0.437500 0.500000
vt 0.437500 0.437500
vt 0.375000 0.500000
vt 0.375000 0.562500
vt 0.500000 0.500000
vt 0.500000 0.437500
vt 0.500000 0.375000
vt 0.548602 0.562500
vt 0.548602 0.625000
vt 0.611102 0.625000
vt 0.611102 0.562500
vt 0.375000 0.875000
vt 0.375000 0.875000
vt 0.375000 0.875000
vt 0.500000 0.875000
vt 0.437500 0.687500
vt 0.500000 0.687500
vt 0.500000 0.687500
vt 0.562500 0.437500
vt 0.562500 0.562500
vt 0.625000 0.562500
vt 0.625000 0.437500
vt 0.625000 0.562500
vt 0.500000 0.500000
vt 0.500000 0.500000
vt 0.375000 0.500000
vt 0.375000 0.500000
vt 0.375000 0.500000
vt 0.437500 0.500000
vt 0.000000 0.000000
vt 0.000000 0.000000
vt 0.000000 0.000000
vt 0.000000 0.000000
vt 0.000000 0.000000
vt 0.000000 0.000000
vt 0.000000 0.000000
vt 0.000000 0.000000
vt 0.625000 0.500000
vt 0.625000 0.500000
vt 0.375000 0.500000
vt 0.404601 0.562500
vt 0.467101 0.562500
vt 0.467101 0.500000
vt 0.404601 0.500000
vt 0.406081 0.500000
vt 0.406081 0.562500
vt 0.406081 0.625000
vt 0.404601 0.625000
vt 0.548602 0.687500
vt 0.611102 0.687500
vt 0.407062 0.805618
vt 0.407062 0.743118
vt 0.445454 0.408451
vt 0.445454 0.470951
vt 0.445454 0.533451
vt 0.469562 0.868118
vt 0.469562 0.805618
vt 0.375354 0.228189
vt 0.375354 0.228189
vt 0.429547 0.500000
vt 0.492047 0.500000
vt 0.634587 0.628976
vt 0.580393 0.357165
vt 0.572087 0.628976
vt 0.572087 0.628976
vt 0.582047 0.744094
vt 0.625000 0.375000
vt 0.375354 0.228189
vt 0.367047 0.375000
vt 0.750000 0.625000
vt 0.750000 0.687500
vt 0.812500 0.687500
vt 0.812500 0.625000
vt 0.750000 0.750000
vt 0.812500 0.750000
vt 0.750000 0.593750
vt 0.812500 0.593750
vt 0.687500 0.250000
vt 0.687500 0.250000
vt 0.562500 0.312500
vt 0.625000 0.687500
vt 0.562500 0.312500
vt 0.562500 0.312500
vt 0.562500 0.312500
vt 0.562500 0.312500
vt 0.641390 0.671751
vt 0.641390 0.609251
vt 0.578890 0.609251
vt 0.516390 0.609251
vt 0.500000 0.125000
vt 0.516390 0.796751
vt 0.516390 0.671751
vt 0.578890 0.671751
vt 0.578890 0.734251
vt 0.641390 0.734251
vt 0.687500 0.250000
vt 0.687500 0.250000
vt 0.625000 0.500000
vt 0.625000 0.500000
vt 0.625000 0.500000
vt 0.625000 0.500000
vt 0.625000 0.500000
vt 0.625000 0.500000
vt 0.625000 0.500000
vt 0.625000 0.500000
vt 0.719799 0.531529
vt 0.719799 0.531529
vt 0.719799 0.531529
vt 0.719799 0.531529
vt 0.719799 0.531529
vt 0.729742 0.453125
vt 0.729742 0.453125
vt 0.729742 0.453125
vt 0.729742 0.453125
vt 0.729742 0.453125
vt 0.729742 0.453125
vt 0.812500 0.656250
vt 0.687500 0.312500
vt 0.687500 0.312500
vt 0.687500 0.562500
vt 0.687500 0.500000
vt 0.687500 0.625000
vt 0.687500 0.250000
vt 0.578890 0.796751
vt 0.577753 0.618366
vt 0.516390 0.640501
vt 0.500000 0.125000
vt 0.641390 0.859251
vt 0.641390 0.828001
vt 0.641390 0.796751
vt 0.000000 0.000000
vt 0.000000 0.000000
vt 0.000000 0.000000
vt 0.000000 0.000000
vt 0.000000 0.000000
vt 0.000000 0.000000
vt 0.000000 0.000000
vt 0.000000 0.000000
vt 0.000000 0.000000
vt 0.000000 0.000000
vt 0.000000 0.000000
vt 0.000000 0.000000
vt 0.500000 0.750000
vt 0.500000 0.750000
vt 0.562500 0.750000
vt 0.562500 0.750000
vt 0.000000 0.000000
vt 0.000000 0.000000
vt 0.137804 0.385851
vt 0.137804 0.385851
vt 0.137804 0.385851
vt 0.068246 0.314980
vt 0.068246 0.314980
vt 0.068246 0.314980
vt 0.068246 0.314980
vt 0.137804 0.385851
vt 0.137804 0.385851
vt 0.056403 0.450769
vt 0.056403 0.450769
vt 0.118903 0.450769
vt 0.118903 0.450769
vt 0.068246 0.314980
vt 0.068246 0.314980
vt 0.137804 0.385851
vt 0.137804 0.385851
vt 0.061653 0.624008
vt 0.061653 0.624008
vt 0.074281 0.734251
vt 0.074281 0.734251
vt 0.068246 0.314980
vt 0.068246 0.314980
vt 0.068246 0.314980
vt 0.711474 0.578125
vt 0.711474 0.578125
vt 0.450218 0.359919
vt 0.396238 0.612196
vt 0.457258 0.572824
vt 0.812500 0.687500
vt 0.687500 0.125000
vt 0.687500 0.125000
vt 0.812500 0.468750
vt 0.457258 0.572824
vt 0.396238 0.612196
vt 0.380618 0.394699
vt 0.460170 0.351294
vt 0.460170 0.413794
vt 0.449754 0.690501
vt 0.380352 0.733907
vt 0.380352 0.702657
vt 0.380618 0.457199
vt 0.370436 0.445312
vt 0.492853 0.445312
vt 0.492853 0.507812
vt 0.492853 0.570312
vt 0.370436 0.570312
vt 0.370436 0.507812
vt 0.555151 0.444851
vt 0.617651 0.444851
vt 0.617651 0.507351
vt 0.555151 0.507351
vt 0.390832 0.137068
vt 0.469781 0.122255
vt 0.468398 0.359115
vt 0.467422 0.820052
vt 0.387310 0.815221
vt 0.390832 0.137068
vt 0.390832 0.137068
vt 0.500000 0.500000
vt 0.437500 0.500000
vt 0.375000 0.500000
vt 0.500000 0.500000
vt 0.000000 0.000000
vt 0.573740 0.480157
vt 0.634606 0.480157
vt 0.634606 0.480157
vt 0.573740 0.480157
vt 0.451356 0.523127
vt 0.451356 0.585627
vt 0.388856 0.585627
vt 0.388856 0.523127
vt 0.388856 0.460627
vt 0.451356 0.460627
vt 0.417885 0.539373
vt 0.417885 0.601873
vt 0.538577 0.487821
vt 0.601077 0.487821
vt 0.601077 0.550321
vt 0.538577 0.550321
vt 0.411534 0.663478
vt 0.474034 0.663478
vt 0.474034 0.725978
vt 0.393328 0.725978
vt 0.393328 0.663478
vt 0.393328 0.600978
vt 0.411534 0.600978
vt 0.429547 0.500000
vt 0.375354 0.228189
vt 0.612400 0.716549
vt 0.549900 0.716549
vt 0.549900 0.716549
vt 0.589312 0.413412
vt 0.586890 0.716080
vt 0.586890 0.591080
vt 0.554939 0.314511
vt 0.438110 0.314980
vt 0.438110 0.314980
vt 0.438110 0.314980
vt 0.418385 0.532490
vt 0.708031 0.284705
vt 0.770531 0.284705
vt 0.770531 0.347205
vt 0.708031 0.347205
vt 0.727874 0.486102
vt 0.790374 0.486102
vt 0.790374 0.548602
vt 0.727874 0.548602
vt 0.823779 0.749518
vt 0.757322 0.208346
vt 0.757322 0.208346
vt 0.698779 0.562018
vt 0.591968 0.505984
vt 0.591968 0.505984
vt 0.591968 0.505984
vt 0.591968 0.505984
vt 0.591968 0.505984
vt 0.576732 0.640866
vt 0.532421 0.638898
vt 0.532421 0.701398
vt 0.597244 0.701398
vt 0.597244 0.638898
vt 0.534744 0.638898
vt 0.534744 0.763898
vt 0.504665 0.215295
vt 0.534744 0.576398
vt 0.597244 0.576398
vt 0.532421 0.576398
vt 0.737480 0.396850
vt 0.737480 0.396850
vt 0.737480 0.396850
vt 0.737480 0.396850
vt 0.616437 0.486142
vt 0.616437 0.486142
vt 0.616437 0.486142
vt 0.616437 0.486142
vt 0.616437 0.486142
vt 0.616437 0.486142
vt 0.616437 0.486142
vt 0.616437 0.486142
vt 0.711474 0.578125
vt 0.711474 0.578125
vt 0.711474 0.578125
vt 0.732103 0.551215
vt 0.732103 0.551215
vt 0.732103 0.551215
vt 0.732103 0.551215
vt 0.732103 0.551215
vt 0.732103 0.551215
vt 0.812500 0.593750
vt 0.687500 0.250000
vt 0.687500 0.250000
vt 0.750000 0.375000
vt 0.750000 0.437500
vt 0.750000 0.312500
vt 0.687500 0.187500
vt 0.687500 0.187500
vt 0.812500 0.531250
vt 0.648169 0.667657
vt 0.648169 0.605157
vt 0.520512 0.625000
vt 0.520512 0.687500
vt 0.520512 0.718750
vt 0.520512 0.750000
vt 0.520866 0.178583
vt 0.585669 0.511407
vt 0.606181 0.323907
vt 0.585669 0.667657
vt 0.000000 0.000000
vt 0.000000 0.000000
vt 0.000000 0.000000
vt 0.000000 0.000000
vt 0.000000 0.000000
vt 0.000000 0.000000
vt 0.000000 0.000000
vt 0.000000 0.000000
vt 0.000000 0.000000
vt 0.000000 0.000000
vt 0.500000 0.750000
vt 0.562500 0.750000
vt 0.562500 0.750000
vt 0.500000 0.750000
vt 0.137804 0.385851
vt 0.068246 0.314980
vt 0.068246 0.314980
vt 0.137804 0.385851
vt 0.137804 0.385851
vt 0.065590 0.529514
vt 0.128090 0.529514
vt 0.128090 0.529514
vt 0.065590 0.529514
vt 0.068246 0.314980
vt 0.068246 0.314980
vt 0.137804 0.385851
vt 0.137804 0.385851
vt 0.500000 0.750000
vt 0.562500 0.750000
vt 0.562500 0.750000
vt 0.500000 0.750000
vt 0.000000 0.000000
vt 0.000000 0.000000
vt 0.000000 0.000000
vt 0.000000 0.000000
vt 0.750000 0.750000
vt 0.812500 0.468750
vt 0.413108 0.359919
vt 0.413108 0.359919
vt 0.450218 0.359919
vt 0.625000 0.625000
vt 0.625000 0.625000
vt 0.625000 0.625000
vt 0.625000 0.625000
vt 0.625000 0.625000
vn -0.9959 0.0378 0.0821
vn -0.9382 -0.2279 -0.2607
vn -0.6702 0.3048 -0.6767
vn -0.9985 0.0297 0.0452
vn 0.2282 -0.2823 -0.9318
vn -0.5958 -0.7854 0.1681
vn 0.9056 0.0370 0.4226
vn -0.9346 -0.0285 -0.3544
vn -0.2512 0.9355 -0.2485
vn -0.7497 0.6254 0.2163
vn -0.4325 0.9012 0.0292
vn -0.3878 0.9172 -0.0917
vn -0.6791 0.6436 -0.3530
vn -0.8848 0.4551 -0.0997
vn -0.9161 0.3861 -0.1080
vn -0.5863 0.2069 -0.7832
vn -0.7246 -0.1002 0.6819
vn -0.6708 0.6591 -0.3399
vn -0.4392 -0.8748 0.2044
vn -0.2088 -0.9327 -0.2940
vn -0.6462 0.6988 0.3068
vn -0.7828 -0.5448 0.3005
vn -0.4383 -0.2889 0.8511
vn -0.5436 -0.2815 0.7907
vn 0.6320 -0.7716 0.0716
vn 0.6733 -0.6925 -0.2591
vn 0.1804 -0.9834 -0.0179
vn -0.6001 -0.7949 -0.0892
vn 0.1363 0.9731 -0.1857
vn -0.0524 0.9495 -0.3093
vn 0.6475 -0.7327 -0.2094
vn 0.3713 0.9245 -0.0865
vn 0.9877 -0.0596 0.1445
vn -0.0598 -0.8599 -0.5070
vn -0.2596 0.9252 0.2767
vn 0.0211 -0.9694 0.2446
vn -0.1474 0.9228 0.3559
vn 0.8895 -0.2162 0.4025
vn 0.5337 -0.8092 0.2455
vn -0.0048 0.9289 0.3703
vn 0.7158 -0.4189 0.5587
vn 0.3774 -0.8309 0.4088
vn -0.0698 -0.9630 0.2604
vn 0.2458 0.7439 0.6215
vn -0.4770 0.7143 0.5121
vn 0.1346 -0.9908 -0.0120
vn -0.5676 0.8149 0.1173
vn 0.9937 0.0663 0.0901
vn 0.9872 -0.1543 -0.0400
vn 0.7366 0.2999 -0.6062
vn 0.9572 0.1379 0.2544
vn 0.3561 -0.6993 0.6199
vn -0.9104 -0.0553 -0.4100
vn 0.8724 0.0194 0.4884
vn 0.3084 0.9349 -0.1756
vn 0.7518 0.6201 0.2245
vn 0.4053 0.9134 0.0382
vn 0.2585 0.9442 0.2039
vn 0.6603 0.7055 0.2575
vn 0.6081 0.5407 0.5812
vn 0.6461 0.4709 0.6007
vn 0.7227 0.2179 -0.6559
vn 0.5692 -0.0607 0.8199
vn 0.6606 0.6976 -0.2775
vn 0.4690 -0.8118 0.3480
vn 0.3328 -0.9138 -0.2330
vn 0.5809 0.7418 0.3351
vn 0.7595 -0.5019 0.4139
vn 0.2534 -0.2295 0.9398
vn 0.3597 -0.2386 0.9020
vn -0.5952 -0.8031 0.0276
vn -0.6023 -0.6906 -0.4003
vn -0.1074 -0.9939 -0.0260
vn 0.6229 -0.7792 -0.0697
vn -0.2045 0.9484 -0.2422
vn 0.0029 0.9533 -0.3019
vn -0.4887 -0.7869 -0.3767
vn -0.4556 0.8620 -0.2222
vn -0.9770 -0.1407 -0.1604
vn 0.2860 -0.8488 -0.4447
vn 0.0672 0.9428 0.3265
vn 0.0287 -0.9681 0.2488
vn -0.0049 0.9334 0.3589
vn -0.9417 -0.2786 0.1888
vn -0.4941 -0.8620 0.1131
vn -0.1694 0.9284 0.3307
vn -0.7572 -0.4716 0.4519
vn -0.3850 -0.8519 0.3551
vn 0.1071 -0.9557 0.2743
vn -0.0786 -0.9968 -0.0144
vn 0.4815 0.8461 0.2285
vn 0.5681 -0.2647 -0.7793
usemtl Material.001
s off
f 1/1/1 29/2/1 25/3/1 4/4/1 5/5/1 17/6/1 3/7/1
f 6/8/2 24/9/2 1/1/2 3/10/2 15/11/2 7/12/2
f 18/13/3 14/14/3 60/15/3 79/16/3
f 4/17/4 11/18/4 9/19/4 22/20/4 23/21/4 10/22/4 5/23/4
f 77/24/5 12/25/5 13/26/5 78/27/5 91/28/5
f 6/29/6 12/30/6 77/31/6 21/32/6 65/33/6 27/34/6
f 65/35/7 21/36/7 77/37/7 91/38/7 78/39/7 87/40/7 88/41/7 66/42/7
f 7/43/8 13/44/8 12/45/8 6/8/8
f 18/46/9 79/47/9 66/48/9 16/49/9 7/50/9 15/51/9 3/52/9 14/53/9
f 14/14/10 19/54/10 84/55/10 60/15/10
f 19/56/11 14/57/11 3/58/11 17/59/11 5/60/11 68/61/11 84/62/11
f 88/63/12 20/64/12 16/65/12 66/66/12
f 16/67/13 20/68/13 13/69/13 7/70/13
f 13/44/14 20/71/14 78/72/14
f 87/73/15 78/74/15 20/64/15 88/63/15
f 28/75/16 2/76/16 26/77/16 31/78/16
f 2/76/17 30/79/17 32/80/17 26/77/17
f 35/81/18 34/82/18 8/83/18 33/84/18
f 71/85/19 9/86/19 11/87/19 36/88/19 74/89/19 120/90/19
f 24/91/20 6/92/20 27/93/20 65/94/20 116/95/20 30/96/20 28/97/20 31/98/20 26/99/20 1/100/20
f 8/83/21 38/101/21 39/102/21 33/84/21
f 37/103/22 4/104/22 33/105/22 39/106/22 38/107/22 74/108/22 36/109/22 11/110/22
f 23/111/23 42/112/23 111/113/23 72/114/23 10/115/23
f 22/116/24 9/117/24 71/118/24 110/119/24 44/120/24 43/121/24
f 34/122/25 38/123/25 8/124/25
f 2/125/26 28/126/26 30/127/26
f 38/101/27 34/82/27 74/128/27
f 32/129/28 30/96/28 34/130/28 35/131/28 33/132/28 4/133/28 25/134/28 29/135/28 1/100/28 26/99/28
f 44/136/29 49/137/29 48/138/29 43/139/29
f 110/140/30 123/141/30 49/137/30 44/136/30
f 23/142/31 46/143/31 47/144/31 42/145/31
f 43/139/32 48/138/32 45/146/32 22/147/32
f 22/148/33 45/149/33 46/150/33 23/151/33
f 42/145/34 47/144/34 124/152/34 111/153/34
f 52/154/35 123/155/35 136/156/35
f 50/157/36 55/158/36 131/159/36 113/160/36
f 52/154/37 136/156/37 56/161/37 51/162/37
f 40/163/38 53/164/38 54/165/38 41/166/38
f 41/167/39 54/168/39 55/158/39 50/157/39
f 51/162/40 56/161/40 53/169/40 40/170/40
f 53/171/41 138/172/41 139/173/41 54/174/41
f 54/168/42 139/175/42 140/176/42 55/158/42
f 55/158/43 140/176/43 137/177/43 131/159/43
f 72/178/44 70/179/44 112/180/44
f 10/181/45 72/114/45 112/182/45
f 30/183/46 116/184/46 74/185/46 34/186/46
f 10/181/47 112/182/47 68/187/47 5/188/47
f 57/189/48 59/190/48 83/191/48 62/192/48 61/193/48 95/194/48 99/195/48
f 63/196/49 64/197/49 81/198/49 59/199/49 57/200/49 94/201/49
f 85/202/50 79/203/50 60/204/50 80/205/50
f 61/206/51 62/207/51 70/208/51 93/209/51 92/210/51 69/211/51 73/212/51
f 63/213/52 97/214/52 65/33/52 90/215/52 77/31/52 75/216/52
f 65/35/53 66/42/53 88/41/53 87/40/53 78/39/53 91/38/53 77/37/53 90/217/53
f 64/218/54 63/219/54 75/220/54 76/221/54
f 85/222/55 80/223/55 59/224/55 81/225/55 64/226/55 82/227/55 66/228/55 79/229/55
f 80/230/56 60/231/56 84/232/56 86/233/56
f 86/234/57 84/235/57 68/236/57 62/237/57 83/238/57 59/239/57 80/240/57
f 88/63/58 66/66/58 82/241/58 89/242/58
f 82/243/59 64/244/59 76/245/59 89/246/59
f 76/247/60 78/248/60 89/249/60
f 87/250/61 88/251/61 89/252/61 78/253/61
f 98/254/62 101/255/62 96/256/62 58/257/62
f 58/258/63 96/259/63 102/260/63 100/261/63
f 105/262/64 103/263/64 67/264/64 104/265/64
f 71/266/65 120/267/65 74/268/65 106/269/65 73/270/65 69/271/65
f 94/272/66 57/273/66 96/274/66 101/275/66 98/276/66 100/277/66 116/278/66 65/279/66 97/280/66 63/281/66
f 67/282/67 103/283/67 109/284/67 108/285/67
f 107/286/68 73/287/68 106/288/68 74/289/68 108/290/68 109/291/68 103/292/68 61/293/68
f 93/294/69 70/179/69 72/178/69 111/295/69 117/296/69
f 92/297/70 118/298/70 119/299/70 110/300/70 71/301/70 69/302/70
f 104/303/71 67/304/71 108/305/71
f 58/306/72 100/307/72 98/308/72
f 108/309/73 74/310/73 104/311/73
f 102/312/74 96/313/74 57/314/74 99/315/74 95/316/74 61/317/74 103/318/74 105/319/74 104/320/74 100/321/74
f 119/322/75 118/323/75 126/324/75 127/325/75
f 110/140/76 119/322/76 127/325/76 123/141/76
f 93/326/77 117/327/77 125/328/77 122/329/77
f 118/323/78 92/330/78 121/331/78 126/324/78
f 92/332/79 93/333/79 122/334/79 121/335/79
f 117/327/80 111/153/80 124/152/80 125/328/80
f 130/336/81 136/156/81 123/155/81
f 128/337/82 113/160/82 131/159/82 134/338/82
f 130/336/83 129/339/83 135/340/83 136/156/83
f 114/341/84 115/342/84 133/343/84 132/344/84
f 115/345/85 128/337/85 134/338/85 133/346/85
f 129/339/86 114/347/86 132/348/86 135/340/86
f 132/349/87 133/350/87 139/351/87 138/352/87
f 133/353/88 134/354/88 140/355/88 139/356/88
f 134/338/89 131/159/89 137/177/89 140/176/89
f 100/357/90 104/358/90 74/185/90 116/184/90
f 70/359/91 62/360/91 68/361/91 112/180/91
f 91/362/92 78/363/92 76/364/92 75/365/92 77/366/92
o Icosphere_Icosphere.002
v 0.123671 0.160043 1.567512
v 0.151911 0.138731 1.592351
v 0.112433 0.122447 1.585649
v 0.084374 0.155323 1.584894
v 0.106512 0.191925 1.591129
v 0.148252 0.181670 1.595738
v 0.130067 0.120840 1.625084
v 0.088327 0.131094 1.620475
v 0.084668 0.174033 1.623862
v 0.124146 0.190317 1.630564
v 0.152206 0.157442 1.631319
v 0.112908 0.152722 1.648701
vt 0.181819 0.000000
vt 0.272728 0.157461
vt 0.090910 0.157461
vt 0.363637 0.000000
vt 0.454546 0.157461
vt 0.909091 0.000000
vt 1.000000 0.157461
vt 0.818182 0.157461
vt 0.727273 0.000000
vt 0.636364 0.157461
vt 0.545455 0.000000
vt 0.363637 0.314921
vt 0.181819 0.314921
vt 0.909091 0.314921
vt 0.727273 0.314921
vt 0.545455 0.314921
vt 0.000000 0.314921
vt 0.272728 0.472382
vt 0.090910 0.472382
vt 0.818182 0.472382
vt 0.636364 0.472382
vt 0.454546 0.472382
vn 0.3382 -0.4890 -0.8041
vn 0.7037 0.1153 -0.7011
vn -0.3509 -0.3197 -0.8801
vn -0.4113 0.3892 -0.8242
vn 0.2404 0.6580 -0.7136
vn 0.9948 0.0887 -0.0501
vn 0.4035 -0.8890 -0.2167
vn -0.7115 -0.6151 -0.3398
vn -0.8093 0.5319 -0.2493
vn 0.2453 0.9669 -0.0703
vn 0.8093 -0.5319 0.2493
vn -0.2453 -0.9669 0.0703
vn -0.9948 -0.0887 0.0501
vn -0.4035 0.8890 0.2167
vn 0.7115 0.6151 0.3398
vn 0.4113 -0.3892 0.8242
vn -0.2405 -0.6580 0.7136
vn -0.7037 -0.1153 0.7011
vn -0.3382 0.4890 0.8041
vn 0.3509 0.3197 0.8801
usemtl None
s off
f 141/367/93 142/368/93 143/369/93
f 142/368/94 141/370/94 146/371/94
f 141/372/95 143/373/95 144/374/95
f 141/375/96 144/374/96 145/376/96
f 141/377/97 145/376/97 146/371/97
f 142/368/98 146/371/98 151/378/98
f 143/369/99 142/368/99 147/379/99
f 144/374/100 143/373/100 148/380/100
f 145/376/101 144/374/101 149/381/101
f 146/371/102 145/376/102 150/382/102
f 142/368/103 151/378/103 147/379/103
f 143/369/104 147/379/104 148/383/104
f 144/374/105 148/380/105 149/381/105
f 145/376/106 149/381/106 150/382/106
f 146/371/107 150/382/107 151/378/107
f 147/379/108 151/378/108 152/384/108
f 148/383/109 147/379/109 152/385/109
f 149/381/110 148/380/110 152/386/110
f 150/382/111 149/381/111 152/387/111
f 151/378/112 150/382/112 152/388/112
o Icosphere.001_Icosphere.003
v -0.391365 0.121808 1.495786
v -0.363124 0.100497 1.520625
v -0.402603 0.084213 1.513923
v -0.430662 0.117088 1.513168
v -0.408524 0.153690 1.519403
v -0.366784 0.143436 1.524012
v -0.384968 0.082605 1.553358
v -0.426709 0.092860 1.548749
v -0.430368 0.135799 1.552136
v -0.390889 0.152082 1.558838
v -0.362830 0.119207 1.559593
v -0.402128 0.114487 1.576975
vt 0.181819 0.000000
vt 0.272728 0.157461
vt 0.090910 0.157461
vt 0.363637 0.000000
vt 0.454546 0.157461
vt 0.909091 0.000000
vt 1.000000 0.157461
vt 0.818182 0.157461
vt 0.727273 0.000000
vt 0.636364 0.157461
vt 0.545455 0.000000
vt 0.363637 0.314921
vt 0.181819 0.314921
vt 0.909091 0.314921
vt 0.727273 0.314921
vt 0.545455 0.314921
vt 0.000000 0.314921
vt 0.272728 0.472382
vt 0.090910 0.472382
vt 0.818182 0.472382
vt 0.636364 0.472382
vt 0.454546 0.472382
vn 0.3382 -0.4890 -0.8041
vn 0.7037 0.1153 -0.7011
vn -0.3509 -0.3197 -0.8801
vn -0.4113 0.3892 -0.8242
vn 0.2405 0.6580 -0.7136
vn 0.9948 0.0887 -0.0501
vn 0.4035 -0.8890 -0.2167
vn -0.7115 -0.6151 -0.3398
vn -0.8093 0.5319 -0.2493
vn 0.2453 0.9669 -0.0703
vn 0.8093 -0.5319 0.2493
vn -0.2453 -0.9669 0.0703
vn -0.9948 -0.0887 0.0501
vn -0.4035 0.8890 0.2167
vn 0.7115 0.6151 0.3398
vn 0.4113 -0.3892 0.8242
vn -0.2404 -0.6580 0.7136
vn -0.7037 -0.1153 0.7011
vn -0.3382 0.4890 0.8041
vn 0.3509 0.3197 0.8801
usemtl None
s off
f 153/389/113 154/390/113 155/391/113
f 154/390/114 153/392/114 158/393/114
f 153/394/115 155/395/115 156/396/115
f 153/397/116 156/396/116 157/398/116
f 153/399/117 157/398/117 158/393/117
f 154/390/118 158/393/118 163/400/118
f 155/391/119 154/390/119 159/401/119
f 156/396/120 155/395/120 160/402/120
f 157/398/121 156/396/121 161/403/121
f 158/393/122 157/398/122 162/404/122
f 154/390/123 163/400/123 159/401/123
f 155/391/124 159/401/124 160/405/124
f 156/396/125 160/402/125 161/403/125
f 157/398/126 161/403/126 162/404/126
f 158/393/127 162/404/127 163/400/127
f 159/401/128 163/400/128 164/406/128
f 160/405/129 159/401/129 164/407/129
f 161/403/130 160/402/130 164/408/130
f 162/404/131 161/403/131 164/409/131
f 163/400/132 162/404/132 164/410/132